<svg xmlns="http://www.w3.org/2000/svg" viewBox="0 0 498 501">
    <path d="M495 422V81l-.028-2-.055-1-.417-2-.444-.9722-.556-.9445-.75-.8333-.833-.75L490 71.4167l-2-.7222-1-.3056-1-.25-2-.5278-1-.3056-2-.611-1-.3056-2-.5278-1-.25-1-.3056-2-.611-1-.3056-1-.25-2-.5278-1-.3056-2-.611-1-.3056-2-.5278-1-.25-1-.3056-2-.611-1-.3056-1-.25-2-.5278-1-.3056-2-.611-1-.3056-1-.25-2-.5-1-.2778-1-.2222-2-.5278-1-.3056-2-.611-1-.3056-2-.5278-1-.25-1-.3056-2-.611-1-.3056-1-.25-2-.5278-1-.3056-2-.611-1-.3056-1-.25-2-.5278-1-.3056-2-.611-1-.3056-2-.5278-1-.25-1-.3056-2-.611-1-.3056-2-.5278-1-.2222-1-.2778-1-.2222-1-.2778-1-.25L404 47l-1-.3333L401 46l-1-.3055-1-.3056-1-.25-2-.5-1-.2778-1-.2222-2-.5278-1-.3056-2-.611-1-.3056-2-.5278-1-.25-1-.3056-2-.611-1-.3056-1-.25-2-.5278-1-.3056-2-.611-1-.3056-1-.25-2-.5278-1-.3056-2-.611-1-.3056-2-.5278-1-.2222-1-.2778-2-.5-1-.25-1-.3056L358 34l-2-.6667L355 33l-1-.3055-1-.3056-1-.25-2-.5-1-.2778-1-.2222-2-.5278-1-.3056-2-.611-1-.3056-2-.5278-1-.25-1-.3056-2-.611-1-.3056-2-.5278-1-.25-1-.3056-2-.611-1-.3056-2-.5278-1-.25-1-.3056-2-.611-1-.3056-1-.25-2-.5278-1-.3056-2-.611-1-.3056-1-.25-2-.5278-1-.3056-2-.611-1-.3056-1-.25-2-.5-1-.2778-1-.2222-2-.5278-1-.3056-2-.611-1-.3056-2-.5278-1-.25-1-.3056-2-.611-1-.3056-2-.5278-1-.25-1-.3056-2-.611-1-.3056-1-.25-2-.5278-1-.3056-2-.611-1-.3056-2-.52779-1-.22222-1-.27778-1-.22222-2-.52778-1-.30557-2-.61108-1-.30557-1-.25-2-.52778-1-.30557L259 6l-2-.66666-2-.66668-1-.33332-2-.72223-1-.41665-2-.72223-1-.19446-1-.11111-2 .30557-1 .36111-2 .77777-1 .36112-2 .63888-2 .52778-1 .25-1 .30557-2 .61108-1 .30557-2 .52778-1 .25L227 8l-2 .66666L224 9l-1 .30554-1 .30557-2 .52779-1 .25L217 11l-2 .6667L214 12l-2 .6111-2 .5278-1 .25-1 .3056L207 14l-2 .6667L204 15l-2 .6111-2 .5278-1 .25-1 .3056-2 .611-1 .3056-2 .5278-1 .25-1 .3056L190 19l-2 .6667L187 20l-1 .3055-1 .3056-2 .5278-1 .25-1 .3056-2 .611-1 .3056-2 .5278-1 .25-1 .3056L173 24l-2 .6667L170 25l-1 .3055-1 .3056-1 .25-2 .5278-1 .3056-2 .611-1 .3056-1 .25-2 .5278-1 .3056L156 29l-1 .3333L153 30l-1 .3055-1 .3056-1 .25-2 .5278L146 32l-1 .3333L143 33l-1 .3055-1 .3056-2 .5278-1 .25-1 .3056-2 .611-1 .3056-2 .5278-1 .25-1 .3056L129 37l-2 .6667L126 38l-2 .6111-2 .5278-1 .25-1 .3056L119 40l-1 .3333L116 41l-1 .3055-1 .3056-1 .25-2 .5278-1 .3056-2 .611-1 .3056-1 .25-2 .5278L102 45l-1 .3333-3 1-1 .3334-2 .6388-1 .3056-1 .25-2 .5278-1 .3056-2 .611-1 .3056-1 .25-2 .5278-1 .3056L82 51l-1 .3333L79 52l-1 .3055-1 .3056-1 .25-2 .5278-1 .3056-2 .611-1 .3056-1 .25-2 .5278-1 .3056L65 56l-2 .6667L62 57l-1 .3055-1 .3056-2 .5278-1 .25-1 .3056-2 .611-1 .3056-2 .5278-1 .25-1 .3056L48 61l-2 .6667L45 62l-2 .6111-2 .5278-1 .25-1 .3056L38 64l-1 .3333L35 65l-1 .3055-1 .3056-1 .25-2 .5278L28 67l-1 .3333L25 68l-1 .3055-1 .3056-1 .25-2 .5278-1 .3056-2 .611-1 .3056-1 .25-2 .5278-1 .3056-2 .6388-2 .6945-1 .3889L5.11111 74.5l-1.38889 1.5833-.38889.9445L3.11111 78 3 80v337l.02778 2 .05555 1L3.5 422l.44444.972.55556.945.75.833.83333.75L8 426.583l2 .723 1 .305 1 .25 2 .528 1 .305 2 .639 1 .334 3 1 1 .333 2 .611 2 .528 1 .25 1 .305 1 .306 2 .667 1 .333 2 .611 1 .25 2 .528 2 .611 1 .333 2 .667 1 .306 1 .305 2 .528 1 .25 2 .611 2 .667 1 .333 2 .611 1 .25 2 .528 1 .305 1 .306 1 .333 2 .667 1 .306 1 .305 2 .528 1 .25 2 .611 2 .667 1 .333 2 .611 1 .25 2 .528 1 .305 1 .306 1 .333 2 .667 1 .306 1 .305 1 .25 2 .528 2 .611 1 .333 2 .667 1 .306 1 .305 1 .25 2 .528 2 .611 2 .667 3 1 1 .333 2 .611 1 .25 2 .528 2 .611 1 .333 2 .667 1 .306 1 .305 1 .25 2 .528 1 .305 2 .612 1 .305 1 .25 2 .528 1 .305 2 .639 1 .334 3 1 1 .333 2 .611 2 .528 1 .25 1 .305 1 .306 1 .333 2 .667 1 .306 1 .305 2 .528 1 .25 2 .611 1 .333 2 .667 2 .611 1 .25 2 .528 1 .305 1 .306 2 .667 3 1 1 .333 1 .306 1 .305 1 .25 2 .528 1 .305 2 .612 1 .305 1 .25 2 .528 1 .305 2 .639 1 .334 3 1 1 .333 2 .611 2 .528 1 .25 1 .305 1 .306 2 .667 1 .333 2 .611 2 .528 1 .25 1 .305 1 .306 2 .667 1 .333 2 .611 2 .528 1 .25 1 .305 2 .639 1 .334 3 1 1 .333 2 .611 2 .528 1 .25 1 .305 2 .612 1 .305 2 .528 1 .25 1 .305 1 .306 2 .667 1 .333 2 .611 1 .25 2 .472 1 .195 2-.028 2-.528 2-.778 1-.361 1-.389 2-.583 1-.25 2-.611 2-.667 1-.333 1-.306 1-.305 1-.25 2-.528 1-.305 1-.306 2-.667 2-.639 1-.305 2-.528 1-.25 1-.305 1-.306 2-.667 1-.333 1-.306 1-.305 1-.25 2-.528 1-.305 2-.612 1-.305 1-.25 2-.528 1-.305 1-.306 2-.667 1-.333 1-.306 1-.305 2-.528 1-.25 2-.611 2-.667 1-.333 2-.611 2-.528 1-.25 1-.305 1-.306 2-.667 1-.333 2-.611 2-.528 1-.25 1-.305 1-.306 1-.333 2-.667 1-.306 1-.305 2-.528 1-.25 2-.611 1-.333 2-.667 2-.611 1-.25 2-.528 1-.305 1-.306 1-.333 2-.667 1-.306 1-.305 2-.528 1-.25 2-.611 2-.667 1-.333 2-.611 1-.25 2-.528 1-.305 1-.306 1-.333 2-.667 1-.306 1-.305 1-.25 2-.528 1-.305 2-.612 1-.305 1-.25 2-.528 1-.305 1-.306 2-.667 1-.333 2-.611 2-.528 1-.25 1-.305 2-.639 1-.334 3-1 1-.333 2-.611 2-.528 1-.25 1-.305 2-.612 1-.305 2-.528 1-.25 1-.305 1-.306 2-.667 1-.333 1-.306 1-.305 2-.528 1-.25 2-.611 2-.667 1-.333 2-.611 1-.25 2-.528 1-.305 1-.306 1-.333 2-.667 1-.306 1-.305 1-.25 2-.528 2-.611 1-.333 2-.667 1-.306 1-.305 1-.25 2-.528 1-.305 2-.612 1-.305 1-.25 2-.528 1-.305 1-.306 2-.667 1-.333 2-.611 2-.528 1-.25 1-.305 1-.306 1-.333 2-.667 1-.306 1-.305 1-.25 2-.528 2-.611 1-.333 2-.667 1-.306 1-.305 2-.528 1-.25 1-.305 1-.306 2-.667 1-.361.944-.333 1-.472.556-.195L495 422M242 15v60l-1.5-.0833-1.556-.3889-.944-.3611-2-.7778-2-.7778-1-.4444-1-.4167-1-.5-2-.8611-2-.7778-2-.8611-1-.5-2-.8611-2-.7778-2-.8611-1-.5-2-.8611-2-.7778-2-.8056-1-.4166-2-.7778-2-.8611-1-.5-2-.8611-2-.7778-2-.8611-1-.5-2-.7778-2-.3889-1-.0278-1 .0278-2 .3056-1 .2222-2 .3056-1 .0555L184 57l-1 .0278-1 .0555-2 .3056-1 .2222-2 .3056-1 .0555L174 58l-1 .0278-1 .0555-2 .3056-1 .2222-2 .3056-1 .0555-2 .1111-1 .1389-2 .3889-2 .3056-1 .0555L156 60l-2 .0278-1 .0555-2 .3056-1 .2222-2 .3056-1 .0555-2 .1111-1 .1389-2 .3889-2 .3056-1 .0555L137 62l-1 .0278-1 .0555-2 .3056-1 .2222-2 .3056-1 .0555-2 .0556-1 .0555-2 .3056-1 .2222-2 .3056-1 .0555-2 .0556-1 .0555-2 .3056-1 .2222-2 .3056-1 .0555-2 .0556-1 .0555-2 .3056-1 .2222-2 .3056-1 .0555L100 66l-1 .0278-1 .0555-2 .3056-1 .2222-2 .3056-1 .0555L90 67l-1 .0278-1 .0555-2 .3056-1 .2222-2 .3056-1 .0555-2 .1111-1 .1389-2 .3889-2 .3056-1 .0555L72 69l-1 .0278-1 .0555-2 .3056-1 .2222-2 .3056-1 .0555-2 .0556-1 .0555-2 .3056-1.9444.3889-1.5556.1944L54 71l.7778-.9722.5278-.1945.8055-.4722.9167-.3333.9722-.3611L60 68l2-.6111 1-.25 2-.5278 1-.3056 2-.611 1-.3056 1-.25 2-.5278L74 64l1-.3333L77 63l1-.3055 1-.3056 1-.25 2-.5278 1-.3056 2-.611 1-.3056 1-.25 2-.5278 1-.3056L91 59l2-.6667L94 58l1-.3055 1-.3056 1-.25 2-.5278L101 56l1-.3333L104 55l1-.3055 1-.3056 1-.25 2-.5278 1-.3056 2-.611 1-.3056 1-.25 2-.5278 1-.3056L118 51l2-.6667L121 50l1-.3055 1-.3056 1-.25 2-.5278L128 48l1-.3333L131 47l1-.3055 1-.3056 1-.25 2-.5278 1-.3056 2-.611 1-.3056 1-.25 2-.5278 1-.3056L145 43l2-.6667L148 42l1-.3055 1-.3056 1-.25 2-.5278L155 40l1-.3333L158 39l1-.3055 1-.3056 1-.25 2-.5278L165 37l1-.3333L168 36l1-.3055 1-.3056 1-.25 2-.5278 1-.3056 2-.611 1-.3056 1-.25 2-.5278 1-.3056L182 32l2-.6667L185 31l1-.3055 1-.3056 2-.5278 1-.25 1-.3056 2-.611 1-.3056 2-.5278 1-.25 1-.3056L199 27l2-.6667L202 26l2-.6111 2-.5278 1-.25 1-.3056L209 24l2-.6667L212 23l1-.3055 1-.3056 1-.25 2-.5278 1-.3056 2-.611 1-.3056 1-.25 2-.5278 1-.3056L226 19l2-.6667 3-1L232 17l2-.6111 1-.25 1-.2778 2-.4722.944-.1667 1.556-.1944L242 15m11 0l1.5.25 1.556.3889.944.2222 1 .2778 1 .25 1 .3056 2 .611 1 .3056 2 .5278 1 .25 1 .3056 2 .611 1 .3056 2 .5278 1 .2222 1 .2778 2 .5 1 .25 1 .3056 2 .611 1 .3056 2 .5278 1 .25 1 .3056 2 .611 1 .3056 1 .25 2 .5278 1 .3056 2 .611 1 .3056 2 .5278 1 .25 1 .3056 2 .611 1 .3056 2 .5278 1 .25 1 .3056 2 .611 1 .3056 2 .5278 1 .25 1 .3056 2 .611 1 .3056 1 .25 2 .5278 1 .3056 2 .611 1 .3056 1 .25 2 .5278 1 .3056 2 .611 1 .3056 1 .25 2 .5278 1 .3056 2 .611 1 .3056 2 .5278 1 .2222 1 .2778 2 .5 1 .25 1 .3056 2 .611 1 .3056 2 .5278 1 .25 1 .3056 2 .611 1 .3056 2 .5278 1 .25 1 .3056 2 .611 1 .3056 1 .25 2 .5278 1 .3056 2 .611 1 .3056 1 .25 2 .5278 1 .3056 2 .611 1 .3056 2 .5278 1 .25 1 .3056 2 .611 1 .3056 2 .5278 1 .2222 1 .2778 2 .5 1 .25 1 .3056 2 .611 1 .3056 2 .5278 1 .25 1 .3056 2 .611 1 .3056 2 .5278 1 .25 1 .3056 2 .611 1 .3056 1 .25 2 .5278 1 .3056 2 .611 1 .3056 1 .25 2 .5278 1 .3056 2 .611 1 .3056 1 .25 2 .5278 1 .3056 2 .611 1 .3056 2 .5278 1 .2222 1 .2778 2 .5 1 .25 1 .3056L438 67l1 .3333L441 68l1 .3055 1 .3056 1 .25 2 .5 1 .2778 1 .2222 2 .5278 1 .3056 2 .611 1 .3056 2 .5278 1 .25 1 .3056 2 .611 1 .3056 2 .5278 1 .25 1 .3056 2 .611 1 .3056 1.944.5556.556.0833 1.5.75-.778.8056-.528.1666-.805.3889-.917.3056L468 79l-2 .6667L465 80l-2 .6667L462 81l-2 .6111-1 .25-2 .5278-1 .3056L455 83l-2 .6667-5 1.6666L446 86l-2 .6111-2 .5278-1 .25-1 .3056-2 .6388-1 .3334-3 1L433 90l-2 .6111-2 .5278-1 .25L426 92l-2 .6667-5 1.6666L417 95l-2 .6111-2 .5278-1 .25L410 97l-2 .6667-5 1.6666-2 .6667-2 .611-2 .528-1 .25-1 .305-2 .639-1 .334-3 1-1 .333-2 .611-2 .528-1 .25-1 .305-2 .639-2 .667-4 1.333-2 .667-2 .611-2 .528-1 .25-2 .611-1 .333-2 .667-4 1.333-2 .667-2 .611-1 .25-2 .528-2 .611-2 .667-1 .333-2 .583-1 .167-1 .083-2-.305-2-.778-1-.5-2-.861-1-.389-1-.389-2-.861-1-.5-2-.861-2-.778-2-.805-1-.417-2-.778-1-.444-1-.417-1-.528-1-.444-1-.528-2-.861-2-.778-2-.805-1-.417-2-.778-2-.861-1-.5-2-.861-2-.778-2-.861-1-.5-2-.8611-2-.7778-2-.8611-1-.5-2-.8611-2-.7778-2-.8056-1-.4166-2-.7778-2-.8611-1-.5-2-.8611-2-.7778-2-.8611-1-.5-2-.8611-2-.7778-2-.8611-1-.5-2-.8611-2-.7778-2-.8056-1-.4166-1.944-.75-1-.4722-.556-.1945L252 80V19l.028-.9722.028-.9167.194-.8056.028-.5277L253 15m-68 48l-.333 1.5-.778 1.5555L182.583 68 181 70l-1.611 2-.778 1-.805 1-1.612 2-.805 1-.778 1-.805 1-1.612 2-.805 1-1.583 2-1.612 2-.805 1-.75 1-.778 1-.722 1-1.528 2-.805 1-1.612 2-.805 1-.778 1-.805 1-1.612 2-.805 1-.778 1-.805 1-1.612 2-1.583 2-.805 1-1.612 2-.805 1-.778 1-1.639 1.944L144 116l-1.5-.25-.556-.167-1-.277-1.944-.639-1-.334-2-.666-1-.334-2-.639-1-.305-1-.25-2-.528-2-.611-1-.333-3-1-1-.334-2-.639-1-.305-1-.25-2-.528-2-.611-2-.667-5-1.666-2-.667-2-.611-2-.528-1-.25-2-.611-2-.667-5-1.6663L89 99l-2-.6111-1-.25-2-.5278L82 97l-1-.3333-3-1-1-.3334-2-.6388-1-.3056-1-.25-2-.5278L69 93l-1-.3333L66 92l-6-2-2-.6667L57 89l-2-.6111-1-.25-2-.5278-1-.3056L50 87l-2-.6667-5-1.6666L41 84l-2-.6111-2-.5278-1-.25-1-.3056-1.9444-.6388-.5556-.2222L31 81l.7778-.8056.5278-.1666.8055-.3611L35 79.2222l1-.1389L38 79l2-.0278 1-.0555 2-.3056 1-.2222 2-.3056 1-.0555 2-.0556 1-.0555 2-.3056 1-.2222 2-.3056 1-.0555 2-.0556 1-.0555 2-.3056 1-.2222 2-.3056 1-.0555 2-.0556 1-.0555 2-.3056 1-.2222 2-.3056 1-.0555L75 75l2-.0278 1-.0555 2-.3056 2-.3889 2-.1944 2-.0556 1-.0555 2-.3056 1-.2222 2-.3056 1-.0555L95 73l1-.0278 1-.0555 2-.3056 1-.2222 2-.3056 1-.0555 2-.0556 1-.0555 2-.3056 1-.2222 2-.3056 1-.0555 2-.0556 1-.0555 2-.3056 1-.2222 2-.3056 1-.0555 2-.0556 1-.0555 2-.3056 1-.2222 2-.3056 1-.0555 2-.0556 1-.0555 2-.3056 1-.2222 2-.3056 1-.0555L140 68l2-.0278 1-.0555 2-.3056 1-.2222 2-.3056 1-.0555 2-.0556 1-.0555 2-.3056 1-.2222 2-.3056 1-.0555L159 66l2-.0278 1-.0555 2-.3056 1-.2222 2-.3056 1-.0555 2-.0556 2-.1944 2-.3889 2-.3056 1-.0555L179 64l2-.0833.944-.1389 1-.1945L185 63m9 1l1.25 1.5.389.5555.722 1L197.667 69l2 3 4.666 7 1.334 2 .666 1 1.361 2 .695 1 .75 1 1.472 2L212 90l.667 1 2 3 6 9 2 3 1.333 2 1.389 2 .75 1 1.472 2 1.389 2 1.333 2 3.334 5 1.333 2 .694 1 .695 1 1.472 2 .75 1 .695 1 1.277 2 .5 1 .417 1 .25 1 .167 1 .083 2v8l-1.5-.028-1.556-.194-.944-.195-2-.583-2-.667-2-.666-4-1.334-3-1-1-.333-1-.306-1-.305-1-.25-2-.528-2-.611-1-.333-3-1-1-.334-2-.639-1-.305-1-.25-2-.528-2-.611-2-.667-5-1.666-2-.667-2-.611-2-.528-1-.25-2-.611-2-.667-5-1.666-2-.667-1-.306-1-.305-1-.25-2-.528-2-.611-2-.667-5-1.666-2-.667-2-.611-2-.528-1-.25-2-.611-1-.333-.944-.306-1-.389-.556-.166L151 118l.694-1.5.389-.556.639-1 1.472-1.944 1.612-2 1.583-2 1.611-2 1.611-2 .778-1 .805-1 1.612-2 .805-1 .778-1 .805-1 1.612-2 .805-1 .778-1 .805-1 1.612-2 .805-1 .75-1 .778-1 .722-1 1.528-2 .805-1 1.612-2 .805-1 .778-1 .805-1 1.612-2 .805-1 .778-1L186 73l1.611-2 .778-1L190 68l.806-.9722 1.527-1.7223.417-.5277L194 64m11 3l1.5.4445.556.2222 1.944.7222 2 .8611 1 .5 2 .8611 2 .7778 2 .8611 1 .5 2 .8611 2 .7778 2 .8611 1 .5 2 .8611 2 .7778 2 .8611 1 .5 2 .8611 2 .7778 1.944.8333 1 .5556.556.2222 1.5 1v39l-1.417-.778-.416-.528-.806-.805-.667-.917L238 118l-1.333-2-.667-1-1.333-2-3.334-5-2-3-1.333-2-.694-1-.695-1-.75-1-1.472-2L223 96l-.667-1L221 93l-4-6-1.333-2-.667-1-.694-1-.695-1-1.472-2-.75-1L210 77l-1.333-2-1.334-2-.666-1-1.223-1.9722-.472-.9167-.222-.8056-.194-.5277L205 67m280 18l-.611 2.0555-.25 1-.278.9445-.222 1-.5 2-.278 1-.222 1-.278 1-.222 1-.278 1-.472 2-.195 1-.388 2-.223 1-.277 1-.612 2-.277 1-.417 2-.389 2-.472 2-.278 1-.222 1-.278 1-.222 1-.5 2-.278 1-.222 1-.278 1-.222 1-.5 2-.278 1-.222 1-.278 1-.222 1-.528 2-.611 2-.583 2-.417 2-.389 2-.472 2-.278 1-.222 1-.5 2-.278 1-.222 1-.278 1-.222 1-.278 1-.222 1-.278 1-.222 1-.278 1-.222 1-.278 1-.222 1-.278 1-.222 1-.278 1-.5 2-.222 1-.278 1-.222 1-.278 1-.222 1-.278 1-.222 1-.278 1-.222 1-.278 1-.222 1-.278 1-.5 2-.222 1-.278 1-.222 1-.278 1-.222 1-.278 1-.222 1-.278 1-.222 1-.5 2-.278 1-.222 1-.278 1-.222 1-.278 1-.222 1-.278 1-.222 1-.278 1-.222 1-.278 1-.222 1-.278 1-.222 1-.5 2-.278 1-.222 1-.278 1-.222 1-.5 2-.278 1-.472 2-.389 2-.417 2-.583 2-.306 1-.305 1-.528 2-.222 1-.5 2-.278 1-.472 2-.195 1-.388 2-.195 1-.472 2-.278 1-.222 1-.278 1-.222 1-.278 1-.222 1-.5 2-.278 1-.222 1-.278 1-.222 1-.278 1-.222.944-.389 1.556-.25 1.5-1.417-.778-.416-.528-.834-.805-.694-.917-1.5-1.972-.778-1-.722-1-1.5-2-.75-1-.695-1-1.388-2-.695-1-1.472-2-.75-1-.695-1-1.388-2-.695-1-1.472-2-.778-1-.722-1-1.5-2-.778-1-.722-1-.778-1-1.472-2-.695-1-1.388-2-.695-1-.75-1-1.5-2-.722-1-.778-1-1.472-2-.695-1-1.388-2-.695-1-1.472-2-.75-1-.695-1-1.388-2-.695-1-1.472-2-.778-1-.722-1-.778-1-1.472-2-.695-1-1.388-2-.695-1-1.472-2-.778-1-.722-1-1.5-2-.75-1-.695-1-1.388-2-.695-1-.75-1-1.472-2-.695-1-1.388-2-.695-1-1.472-2-.778-1-.722-1-.778-1-1.472-2-.695-1-1.388-2-.695-1-1.472-2-.778-1-.722-1-.778-1-.722-1-1.5-2-.778-1-1.472-2-.695-1-1.388-2-.695-1-1.472-2-.75-1-.695-1-1.388-2-.695-1-1.472-2-1.5-2-.75-1-1.195-1.944-.583-1.556L353 125l1.5-.25.556-.167 1-.277 1.944-.639 1-.334 2-.666 2-.667 2-.611 1-.25 2-.528 2-.611 2-.667 5-1.666 2-.667 1-.306 1-.305 1-.25 2-.528 2-.611 1-.333 2-.667 6-2 2-.667 1-.333 2-.611 2-.528 1-.25 2-.611 1-.333 3-1 1-.334 2-.639 1-.305 1-.25 2-.528 2-.611 2-.667 5-1.666 2-.667 2-.611 1-.25 2-.528 2-.611 2-.6667 5-1.6666L443 97l2-.6111 2-.5278 1-.25 1-.3056 2-.6388 1-.3334 3-1L456 93l2-.6111 2-.5278 1-.25 1-.3056L463 91l2-.6667L469 89l2-.6667L472 88l2-.6111 1-.25 2-.5278 1-.3056 2-.611 1-.2778.944-.1945 1.556-.1944L485 85M14 86l1.5.4445.5556.2222 1 .3333.9444.3333L20 88l1 .3055 1 .3056 1 .25 2 .5278L27 90l1 .3333 3 1L33 92l1 .3055 1 .3056 1 .25 2 .5278L40 94l2 .6667 5 1.6666L49 97l2 .6111 1 .25 2 .5278L56 99l2 .6667 5 1.6663 2 .667 2 .611 1 .25 2 .528 2 .611 2 .667 5 1.666 2 .667 2 .611 2 .528 1 .25 1 .305 2 .639 1 .334 3 1 1 .333 2 .611 2 .528 1 .25 1 .305 1 .306 2 .667 5 1.666 2 .667 2 .611 2 .528 1 .25 1 .305 2 .639 1 .334 3 1 1 .333 2 .611 2 .528 1 .25 1 .305 1 .306 1 .333 2 .667.944.306 1 .277.556.167 1.5.25-.361 1.5-.361.556-.584 1-.722.944-1.583 2-.778 1-.805 1-1.612 2-.805 1-.778 1-.805 1-1.612 2-.805 1-.778 1-.805 1-1.612 2-.805 1-.778 1-.805 1-1.612 2-.805 1-.778 1-1.611 2-.806 1-.805 1-1.528 2-1.5 2-.75 1-1.667 2-.888 1-1.667 2-1.583 2-1.612 2-.805 1-.75 1-.7779 1-.7222 1-1.5278 2-.8055 1-1.6112 2-.8055 1-.7778 1-.8055 1-1.6112 2-.8055 1-.7778 1-.8055 1-1.6112 2-.8055 1-.7778 1-.8055 1-1.6112 2-.8055 1-.7778 1-.8055 1-1.6112 2-.8055 1-1.5833 2-1.6112 2-.8055 1-.75 1-.7778 1-.7222 1-1.5278 2-.8055 1-1.6112 2-.8055 1-.7778 1-.8055 1-1.6112 2-.8055 1-.7778 1-.8055 1-1.6112 2-.8055 1-.7778 1L57 226l-1.6111 2-.7778 1L53 231l-1.5833 2-.6945 1-.6111 1-.8055 2-.2223 1-.3055 2-.1667 1-.4167 2L48 244l-.4167 2L47 248l-.3056 1-.3055 1-.5278 2-.2222 1-.2778 1-.2222 1-.2778 1-.2222 1-.2778 1-.2222 1-.2778 1-.5 2-.2222 1-.2778 1-.5 2-.2222 1-.2778 1-.4722 2-.1945 1-.3888 2-.5 2-.6112 2-.3055 1-.5278 2-.2222 1-.2778 1-.5 2-.2222 1-.2778 1-.5 2-.2222 1-.2778 1-.2222 1-.2778 1-.2222 1-.2778 1-.2222 1-.2778 1-.5 2-.2222 1-.2778 1-.2222 1-.2778 1-.2222 1-.2778 1-.2222 1-.2778 1-.2222 1-.2778 1-.5 2-.2222 1-.2778 1-.2222 1-.2778 1-.2222 1-.2778 1-.2222 1-.2778 1-.2222 1-.2778 1-.2222 1-.2778 1-.2222 1-.2778 1-.2222 1-.2778 1-.5 2-.2222 1-.2778 1-.2222 1-.2778 1-.2222 1-.2778 1-.2222 1-.2778 1-.2222 1-.5 2-.2778 1-.2222 1-.2778 1-.2222 1-.5278 2-.3055 1L22 347l-.5833 2L21 351l-.1944 1-.1945 1-.4722 2-.2778 1-.2222 1-.2778 1-.2222 1-.2778 1-.2222 1-.2778 1-.5 2-.2222 1-.2778 1-.2222 1-.2778 1-.2222 1-.2778 1-.2222 1-.2778 1-.5 2-.2222 1-.2778 1-.2222.944-.3889 1.556L14 380l-.7222-.778-.0278-.528-.1944-.805-.0278-.917L13 376V90l.0278-.9722.0278-.9167.1944-.8056.0278-.5277L14 86m239 1l1.5.9722.556.1945 1 .4722 1.944.75 1 .4166 2 .8056 2 .7778 2 .8611 1 .5 2 .8611 2 .7778 2 .8611 1 .5 2 .8611 2 .7778 1 .4166 2 .8056 2 .7778 2 .8611 1 .5 2 .861 2 .778 2 .861 1 .5 2 .861 2 .778 2 .861 1 .5 2 .861 2 .778 2 .861 1 .5 2 .861 1 .389 1 .389 2 .861 1 .5 2 .861 2 .778 2 .805 1 .417 2 .778 2 .861 1 .5 2 .861.972.389 1.695.861.972.917L331 122l-1.5.25-.556.167-1 .277L327 123l-2 .667-1 .333-1 .306-1 .305-1 .25-2 .528-2 .611-2 .667-5 1.666-2 .667-2 .611-1 .25-2 .528-2 .611-2 .667-5 1.666-2 .667-2 .611-2 .528-1 .25-1 .305-2 .639-1 .334-3 1-1 .333-2 .611-2 .528-1 .25-1 .305-1 .306-2 .667-5 1.666-2 .667-1 .306-1 .277-2 .306-1-.028-1.917-.583-.861-.611-1.5-1.695-.611-.972-.472-1-.528-2-.111-2V92l.028-1.9722.028-.9167.194-.8056.028-.5277L253 87m232 28v297l-1.5-.444-.556-.223-1-.333-.944-.333-1-.334-2-.666-5-1.667-24-8-21-7-7-2.333-3-1-1-.334-2-.722-2-.778-1-.389-1-.277-2-.556-2-.611-2-.667-5-1.666-3-1-1-.334-1-.361-1-.361-1-.417-2-.805-2-.722-2-.667-1-.306-1-.305-1-.25-2-.583-1-.389-1-.361-2-.778-2-.639-1-.25-1-.306-1-.277-1-.389-2-.778-2-.722-1-.334-2-.666-.944-.306-1-.389-.556-.166L361 370l.778-1.5.528-.556 1.638-1.944 1.667-2 .778-1 1.611-2 1.611-2 .778-1 .805-1 1.612-2 .805-1 .778-1 .805-1 1.612-2 .805-1 .778-1 1.667-2 .888-1 1.667-2 .75-1 1.5-2 .778-1 .75-1 1.667-2 .888-1 1.667-2 .778-1 .805-1 1.612-2 .805-1 .778-1 .805-1 1.612-2 1.583-2 1.667-2 .888-1 1.667-2 .75-1 1.5-2 .778-1 .75-1 1.667-2 .888-1 1.667-2 .778-1 .805-1 1.612-2 .805-1 .778-1 .805-1 1.612-2 .805-1 .778-1 .805-1 1.612-2 .805-1 .778-1 .805-1 1.612-2 .805-1 .778-1 .805-1 1.612-2 .805-1 .778-1 1.667-2 .888-1 1.667-2 .778-1 .805-1 1.612-2 .805-1 .778-1 .805-1 1.612-2 1.555-2 .75-1 1.278-2 .889-2 .528-2 .388-2 .195-1 .417-2 .388-2 .195-1 .472-2 .278-1 .222-1 .278-1 .222-1 .5-2 .278-1 .222-1 .5-2 .278-1 .222-1 .278-1 .222-1 .278-1 .222-1 .278-1 .222-1 .278-1 .222-1 .278-1 .222-1 .278-1 .222-1 .278-1 .5-2 .222-1 .278-1 .222-1 .278-1 .222-1 .278-1 .222-1 .278-1 .222-1 .278-1 .222-1 .278-1 .222-1 .278-1 .5-2 .222-1 .278-1 .222-1 .278-1 .222-1 .278-1 .222-1 .278-1 .222-1 .278-1 .222-1 .278-1 .222-1 .278-1 .222-1 .278-1 .5-2 .222-1 .278-1 .222-1 .278-1 .222-1 .5-2 .278-1 .472-2 .389-2 .417-2 .583-2 .611-2 .528-2 .472-2 .195-1 .388-2 .223-1 .277-1 .612-2 .277-1 .417-2 .389-2 .472-2 .278-1 .222-1 .5-2 .278-1 .222-1 .278-1 .222-1 .278-1 .222-1 .5-2 .278-1 .222-1 .278-1 .222-1 .278-1 .222-1 .278-1 .222-1 .278-1 .222-1 .278-1 .222-1 .278-1 .222-1 .278-1 .222-1 .278-1 .5-2 .528-1.972.25-.917.444-.805.167-.528L485 115m-243 42v91l-.083 2-.167 1-.25 1-.972 2-.695 1-1.472 2-.75 1-.805 1-1.612 2-.805 1-.778 1-.805 1-1.612 2-1.583 2-.805 1-1.612 2-.805 1-.778 1-.805 1-1.612 2-.805 1-.778 1-.805 1-1.612 2-.805 1-.778 1-.805 1-1.612 2-.805 1-.778 1-1.639 1.944-.944 1L209 293l-1.5-.5-.556-.306-1.944-.805-1-.361-1-.361-1-.334-2-.666-1-.334-1-.361-1-.361-2-.805-1-.417-2-.722-1-.334-2-.722-1-.417-2-.805-1-.361-1-.361-1-.334-2-.666-1-.334-1-.361-1-.361-2-.805-1-.417-2-.722-1-.334-2-.722-2-.805-1-.417-2-.722-1-.334-2-.722-2-.805-1-.417-2-.722-1-.334-2-.722-1-.417-2-.805-2-.722-1-.334-2-.722-1-.417-2-.805-1-.361-1-.361-1-.334-2-.666-1-.334-1-.361-1-.361-2-.805-1-.417-2-.722-1-.334-2-.722-2-.805-1-.417-2-.722-1-.334-2-.722-2-.805-1-.417-2-.722-1-.334-2-.722-1-.417-2-.805-1-.361-1-.361-1-.334-2-.666-1-.334-1-.361-1-.361-2-.805-1-.417-2-.722-1-.334-2-.722-2-.805-1-.417-2-.722-1-.334-2-.722-1-.417-2-.805-2-.722-1-.334-2-.722-1-.417-2-.805-1-.361-1-.361-1-.334-2-.666-1-.334-2-.722-1-.417-2-.805-1.9444-.75-1-.472-.5556-.195L57 236l.75-1.5.4722-.556.6667-1 .75-.944.75-1 .8055-1 1.6112-2 .8055-1 .7778-1 .8055-1 1.6112-2 1.5833-2 .8055-1 1.6112-2 .8055-1 .7778-1 .8055-1 1.6112-2 .8055-1 .7778-1 .8055-1 1.6112-2 .8055-1 1.5833-2 1.6112-2 .8055-1 1.5278-2 .7222-1 .7778-1 .75-1 .8055-1 1.6112-2 .8055-1 .7778-1 .8055-1 1.6112-2 .8055-1 .7778-1 .8055-1 1.6112-2 .8055-1 .7778-1 .8051-1 1.612-2 .805-1 .778-1 .805-1 1.612-2 .805-1 1.583-2 1.612-2 .805-1 1.528-2 .722-1 .778-1 .75-1 .805-1 1.612-2 .805-1 .778-1 .805-1 1.612-2 .805-1 .778-1 .805-1 1.612-2 .805-1 .778-1 .805-1 1.612-2 .805-1 .778-1 .805-1 1.612-2 .805-1 .778-1 .805-1 1.612-2 .805-1 .778-1 1.611-2 1.528-1.944L143 127l1.5.028 1.556.194.944.195 2 .583 2 .667 1 .333 2 .667 1 .333 1 .306 1 .305 1 .25 2 .528 2 .611 1 .333 3 1 2 .667 2 .611 2 .528 1 .25 1 .305 1 .306 2 .667 4 1.333 4 1.333 2 .667 1 .306 1 .305 1 .25 2 .528 2 .611 1 .333 3 1 1 .334 2 .639 1 .305 1 .25 2 .528 2 .611 1 .333 3 1 1 .334 2 .639 1 .305 1 .25 2 .528 2 .611 1 .333 2 .667 6 2 2 .667 1 .333 2 .611 2 .528 1 .25 1 .305 1.944.639.556.223 1.5.444m97-27l-.75 1.5-.472.556-.667 1-.75.944-.75 1-.805 1-1.612 2-.805 1-.778 1-.805 1-1.612 2-.805 1-1.583 2-1.612 2-.805 1-1.528 2-.722 1-.778 1-.75 1-1.667 2-.888 1-1.667 2-.778 1-.805 1-1.612 2-.805 1-.778 1-.805 1-1.612 2-.805 1-1.528 2-.722 1-.778 1-.75 1-1.667 2-.888 1-.834 1-.833 1-.75 1-.778 1-.722 1-1.528 2-.805 1-1.612 2-.805 1-1.556 1.944-.416.556L290 192l-1.417-.778-.416-.528-.806-.805-.667-.917L286 188l-1.333-2-.667-1-1.389-2-1.472-2-.75-1-1.389-2-1.333-2-2.667-4-1.333-2-.667-1-.694-1-.695-1-1.472-2-.75-1-1.389-2-1.333-2-.667-1-1.306-2-.583-.944-.472-1-.306-.556L263 153l1.5-.25.556-.167 1-.277 1.944-.639 1-.334 2-.666 2-.667 2-.611 1-.25 2-.528 2-.611 2-.667 5-1.666 2-.667 2-.611 1-.25 2-.528 2-.611 2-.667 5-1.666 2-.667 2-.611 2-.528 1-.25 1-.305 2-.639 1-.334 3-1 1-.333 2-.611 2-.528 1-.25 1-.305 1-.306 2-.667 3-1 2-.666 2-.667 1-.306.944-.277 1-.195.556-.139L339 130m9 1l1.417 1.5 1.222 1.556.667.944 1.388 2 .695 1 1.472 2 .75 1 .695 1 1.388 2 .695 1 1.472 2 .778 1 .722 1 .778 1 .722 1 1.5 2 .778 1 1.472 2 .695 1 1.388 2 .695 1 .75 1 1.5 2 .722 1 .778 1 1.472 2 .695 1 1.388 2 .695 1 1.472 2 .778 1 .722 1 .778 1 1.472 2 .695 1 1.388 2 .695 1 .75 1 1.472 2 .695 1 1.388 2 .695 1 .75 1 1.5 2 .722 1 .778 1 1.472 2 .695 1 1.388 2 .695 1 .75 1 1.472 2 .695 1 1.388 2 .695 1 1.472 2 .778 1 1.5 2 .722 1 .778 1 .722 1 .778 1 1.472 2 .695 1 1.388 2 .695 1 1.472 2 .75 1 .695 1 1.388 2 .695 1 1.472 2 .778 1 1.5 2 .722 1 .778 1 .722 1 .778 1 1.472 2 .695 1 1.388 2 .695 1 .75 1 1.472 2 1.278 1.944.778 1.556.333 1.5-1.5-.444-.556-.223-1.944-.722-1-.417-2-.805-2-.778-2-.805-1-.417-2-.722-1-.334-1-.361-1-.361-1-.417-2-.805-2-.778-2-.805-1-.417-2-.722-1-.334-1-.361-1-.361-1-.417-2-.805-2-.778-2-.805-1-.417-2-.778-2-.805-1-.417-2-.722-1-.334-1-.361-1-.361-1-.417-2-.805-2-.778-2-.805-1-.417-2-.722-1-.334-1-.361-1-.361-1-.417-2-.805-2-.778-1-.417-2-.805-2-.778-2-.805-1-.417-1-.361-1-.361-1-.334-2-.722-1-.417-2-.805-2-.778-2-.805-1-.417-2-.778-2-.805-1-.417-2-.722-1-.334-1-.361-1-.361-1-.417-2-.805-2-.778-1-.417-2-.805-2-.778-2-.805-1-.417-2-.722-1-.334-1-.361-1-.361-1-.417-2-.805-2-.778-2-.805-1-.417-2-.722-1-.334-1-.361-1-.361-1-.417-2-.805-2-.778-2-.805-1-.417-1.944-.75-1-.472-.556-.195L294 197l.778-1.5.5-.556.75-1 1.583-1.944.778-1 1.611-2 1.611-2 .778-1 .805-1 1.612-2 .805-1 .778-1 .805-1 1.612-2 .805-1 .75-1 .778-1 .722-1 1.528-2 .805-1 1.612-2 1.583-2 1.667-2 .888-1 1.667-2 .75-1 .778-1 .722-1 1.528-2 .805-1 1.612-2 .805-1 .778-1 .805-1 1.612-2 .805-1 .778-1 .805-1 1.612-2 .805-1 .778-1 .805-1 1.612-2 .805-1 .778-1 1.611-2 1.528-1.944L346 131h2m-91 25l1.056 1.5.333.556.667 1 .611.944 1.333 2 3.333 5 2 3 .667 1 1.389 2 1.472 2 .75 1 .695 1 .694 1 1.333 2 .667 1 1.333 2 4 6 2 3 1.306 1.944.722 1 .389.556L285 197v2l-1.972 2.056-1.639 1.944-.778 1-.805 1-1.612 2-.805 1-1.583 2-1.612 2-.805 1-.778 1-.805 1-1.612 2-.805 1-.778 1-.805 1-1.612 2-.805 1-.778 1-1.611 2-1.611 2-1.528 2-.722 1-.778 1-.75 1-1.611 1.972-1.556 1.695-.777.611-.417.361L252 238v-81l1-1h4m183 105l-.361 1.5-.361.556-.584 1-.722.944-1.583 2-.778 1-1.667 2-.888 1-1.667 2-.778 1-.805 1-1.612 2-.805 1-.778 1-.805 1-1.612 2-.805 1-.778 1-.805 1-1.612 2-.805 1-.778 1-.805 1-1.612 2-.805 1-.778 1-.805 1-1.612 2-.805 1-.778 1-1.667 2-.888 1-1.667 2-.778 1-.805 1-1.612 2-.805 1-.778 1-.805 1-1.612 2-.805 1-.778 1-.805 1-1.612 2-.805 1-.778 1-.805 1-1.612 2-.805 1-.778 1-.805 1-1.612 2-.805 1-.778 1-1.667 2-.888 1-1.667 2-1.583 2-1.612 2-.805 1-.778 1-.805 1-1.612 2-.805 1-.778 1-.805 1-1.612 2-.805 1-.778 1-1.667 2-.888 1-1.667 2-1.583 2-1.612 2-.805 1-.75 1-.778 1-.722 1-.722.944-1.167 1.556L355 368l-1.5-.25-.556-.167-1-.277-1.944-.639-1-.334-2-.666-3-1L327 359l-53-17.667-6-2-2-.666-1-.334-1-.361-1-.361-2-.805-1-.417-2-.722-1-.334-1.944-.639-1-.277-.556-.167-1.5-.25v-80l.028-2 .305-2 .361-1 1.195-2 .75-1 .75-1 .805-1 1.612-2 .805-1 .778-1 .805-1 1.612-2 .805-1 .778-1 .805-1 1.612-2 .805-1 1.528-2 .722-1 .778-1 .75-1 1.667-2 .888-1 1.667-2 1.528-2 1.5-2 .75-1 1.667-2 .888-1 1.667-2 .75-1 .778-1 1.5-2 .75-.972.833-.917 1.806-1.361.972-.333 1-.084 1 .111 2 .584 2 .778 2 .805 2 .722 1 .334 2 .722 1 .417 2 .805 2 .778 2 .805 1 .417 1 .361 1 .361 1 .334 2 .722 1 .417 2 .805 2 .778 2 .805 1 .417 2 .778 1 .417 2 .805 2 .722 1 .334 2 .722 1 .417 2 .805 2 .778 1 .417 2 .805 2 .778 2 .805 1 .417 1 .361 1 .361 1 .334 2 .722 1 .417 2 .805 2 .778 2 .805 1 .417 1 .361 1 .361 1 .334 2 .722 1 .417 2 .805 2 .778 1 .417 2 .805 2 .778 1 .417 2 .805 2 .778 2 .805 1 .417 1 .361 1 .361 1 .334 2 .722 1 .417 2 .805 2 .778 2 .805 1 .417 1 .361 1 .361 1 .334 2 .722 1 .417 2 .805 2 .778 2 .805 1 .417 2 .778 1 .417 2 .805 2 .778 2 .805 1 .417 1 .361 1 .361 1 .334 2 .722 1 .417 2 .805 2 .778 2 .805 1 .417 1 .361 1 .361 1 .334 1.944.694 1 .472.556.195 1.5.972M55 246l1.25 1.5.3889.556.7222 1L58.6667 251 60 253l3.3333 5 1.3334 2L66 262l.6944 1 .6945 1 .75 1 1.4722 2L71 269l1.3333 2 1.3334 2L75 275l.6944 1 .6945 1 1.4722 2 .75 1L80 282l1.3333 2 3.3334 5L86 291l1.3889 2 .75 1 1.4722 2L91 298l1.3333 2 3.3334 5L97 307l1.3889 2 1.4722 2 .7499 1 .695 1 .694 1 .667 1 2 3 1.333 2 1.389 2 1.472 2 .75 1 .695 1 .694 1 1.333 2 2 3 2 3 .667 1 1.389 2 .75 1 1.417 2 1.277 2 .611 1 1.417 2 .75 1 1.389 2 1.333 2 2.667 4 1.333 2 .667 1 1.389 2 1.472 2 .75 1 1.361 2 .611 1 .5.944.639 1.556.278 1.5-1.5.806-.556.166-1 .389-.944.306-2 .722-1 .417-2 .805-2 .722-2 .667-5 1.667-2 .666-1 .334-2 .722-2 .805-1 .417-2 .722-1 .334-2 .666-7 2.334-2 .666-1 .334-2 .722-2 .805-1 .417-2 .722-2 .667-3 1-2 .667-1 .361-1 .361-1 .417-2 .805-2 .722-1 .334-2 .666L69 395l-2 .667-1 .361-1 .361-1 .417-2 .805-2 .722-1 .334-2 .666L52 401l-2 .667-2 .722-2 .805-1 .417-2 .722-2 .667-3 1-2 .667-1 .361-1 .361-2 .805-1 .417-2 .722-2 .667-5 1.667-3 1-1 .333-1.9444.583-1 .195-.5556.139L13 414v-2.056l.0278-1.944.0555-1 .3056-2 .25-1 .5-2 .2222-1 .2778-1 .2222-1 .2778-1 .2222-1 .2778-1 .5-2 .2222-1 .2778-1 .2222-1 .2778-1 .2222-1 .2778-1 .2222-1 .2778-1 .2222-1 .5-2 .2778-1 .2222-1 .2778-1 .2222-1 .2778-1 .2222-1 .2778-1 .2222-1 .2778-1 .2222-1 .5-2 .2778-1 .2222-1 .2778-1 .2222-1 .2778-1 .2222-1 .2778-1 .2222-1 .5-2 .2778-1 .2222-1 .2778-1 .2222-1 .2778-1 .2222-1 .2778-1 .2222-1 .2778-1 .2222-1 .5-2 .2778-1 .2222-1 .2778-1 .2222-1 .2778-1 .2222-1 .2778-1 .5-2 .2222-1 .5278-2L31 337l.5833-2L32 333l.1944-1 .1945-1 .4722-2 .2778-1 .5-2 .2222-1 .5278-2 .3055-1 .6112-2 .3055-1 .5278-2 .2222-1 .2778-1 .5-2 .2222-1 .2778-1 .2222-1 .2778-1 .4722-2 .1945-1 .3888-2 .2223-1L40 301l.5833-2 .2223-1 .3888-2 .2223-1L42 293l.6111-2 .5278-2 .2222-1 .5-2 .2778-1 .2222-1 .2778-1 .2222-1 .2778-1 .5-2 .2222-1 .2778-1 .2222-1 .2778-1 .2222-1 .2778-1 .2222-1 .2778-1 .2222-1 .2778-1 .2222-1 .2778-1 .5-2 .2222-1 .2778-1 .2222-1 .2778-1 .2222-1 .2778-1 .2222-1 .2778-1 .2222-1 .2778-1 .2222-1 .2778-1 .5-2 .5278-1.972.25-.917.4444-.805.1667-.528L55 246m9 0l1.5.25 1.5556.444 1.9444.695 1 .417 2 .805 2 .778 2 .805 1 .417 1 .361 1 .361 1 .334 2 .666 1 .334 1 .361 1 .361 2 .805 1 .417 2 .722 1 .334 2 .722 1 .417 2 .805 2 .722 1 .334 2 .722 1 .417 2 .805 2 .722 1 .334 1 .361 1 .361 1 .417 2 .805 2 .722 1 .334 2 .666 1 .334 1 .361 1 .361 2 .805 1 .417 2 .722 1 .334 2 .722 1 .417 2 .805 2 .722 1 .334 2 .722 1 .417 2 .805 1 .361 1 .361 1 .334 2 .666 1 .334 1 .361 1 .361 2 .805 1 .417 2 .722 1 .334 2 .722 1 .417 2 .805 2 .722 1 .334 2 .722 1 .417 2 .805 1 .361 1 .361 1 .334 2 .666 1 .334 1 .361 1 .361 2 .805 1 .417 2 .722 1 .334 2 .722 1 .417 2 .805 1 .361 1 .361 1 .334 2 .722 2 .805 1 .417 2 .722 1 .334 2 .722 1 .417 2 .805 1.944.722.556.223 1.5.444-.75 1.5-.472.556-1.417 1.944-.722 1-.778 1-1.5 2-.75 1-.805 1-1.612 2-1.583 2-1.611 2-1.611 2-.75 1-.778 1-.722 1-1.528 2-.805 1-1.612 2-.805 1-1.528 2-.722 1-.778 1-.75 1-.833 1-.834 1-.888 1-1.667 2-.75 1-.778 1-.722 1-1.528 2-.805 1-1.612 2-1.583 2-.805 1-1.612 2-.805 1-.75 1-1.5 2-.778 1-.75 1-.805 1-1.612 2-.805 1-1.528 2-.722 1-1.528 1.972-1.694 1.722-.945.667-1.972.917-1 .305-.944.195-1.556.194-1.5.028-.694-1.5-.389-.556-.611-1-.639-.944-1.334-2-.666-1-1.334-2-1.333-2-1.389-2-.75-1-1.472-2-.695-1-.694-1-.667-1-1.333-2-4-6-1.333-2-.667-1-1.389-2-1.472-2-.75-1-.695-1-.694-1-.667-1-2-3-1.333-2-1.389-2-1.472-2-.75-1-1.389-2-1.333-2-3.334-5-1.333-2-1.389-2-1.472-2-.75-1-1.389-2-.6667-1L98 298l-4-6-1.3333-2L92 289l-1.3889-2-1.4722-2-.75-1-.6945-1L87 282l-.6667-1-2-3-.6666-1-1.3611-2-.6945-1-.75-1-1.4722-2L78 269l-1.3333-2-3.3334-5L72 260l-1.3889-2-1.4722-2-.75-1L67 253l-.6667-1-.6666-1-1.2223-1.972-.4722-.917-.2222-.805-.1944-.528L64 246m178 18v65l-.028 1-.028.944-.194 1-.028.556L241 334l-1.472-.361-1.361-.972-.75-.778L236 330l-.667-1-1.305-2-.639-1-1.195-2-.583-1-.639-1-.639-1-1.333-2-3.333-5-1.334-2-.666-1-1.278-2-1.195-2-.583-1-.639-1-1.305-2-1.306-1.944-.722-1-.389-.556L215 298l.278-1.5.666-1.556.528-.944.695-1 1.472-2 .75-1 .805-1 1.612-2 .805-1 .778-1 .805-1 1.612-2 .805-1 .778-1 .805-1 1.612-2 .805-1 .778-1 1.611-2 1.611-2 .778-1 1.667-2 1.638-1.944.528-.556.778-1.5h2m-31 38l1.056 1.5.333.556 1.222 1.944 1.195 2 .583 1 1.278 2 1.333 2 2 3 1.333 2 1.278 2 1.195 2 .583 1 .639 1 1.305 2 .667 1 2 3 .667 1 1.305 2 .611.944.528 1 .361.556.528 1.5-1.5.5-.556.306-1 .388-.944.417-2 .722-2 .667-5 1.667-2 .666-1 .334-2 .722-1 .417-2 .805-2 .722-2 .667-3 1-2 .667-2 .722-1 .417-2 .805-2 .722-1 .334-3 1-7 2.333-3 1-2 .667-1 .361-1 .361-2 .805-1 .417-2 .722-1 .334-2 .666-1 .334-1.944.639-1 .277-.556.167-1.5.25.75-1.5.472-.556.667-1 1.5-1.944.805-1 1.612-2 .805-1 .75-1 .778-1 .722-1 1.528-2 .805-1 1.612-2 .805-1 1.583-2 1.612-2 .805-1 1.528-2 .722-1 .778-1 .75-1 .805-1 1.612-2 .805-1 .778-1 .805-1 1.612-2 .805-1 .778-1 1.611-2 1.611-2 1.528-2 .722-1 1.528-2 .805-1 1.612-2 .805-1 .778-1 .805-1 1.612-2 .805-.972.722-.917.834-.805.416-.528L211 302m136 74l-.361 1.5-.333.556-1.195 1.944-1.5 2-1.667 2-1.722 2-.833 1-1.583 2-1.612 2-.805 1-.778 1-1.611 2-1.611 2-.778 1-.805 1-1.612 2-.805 1-.778 1-.805 1-1.612 2-.805 1-.778 1-1.667 2-.888 1-1.667 2-.778 1-.805 1-1.612 2-.805 1-.778 1-.805 1-1.612 2-.805 1-.778 1-.805 1-1.612 2-.805 1-1.556 1.944-.416.556L303 432l-1.417-.778-.416-.528-.806-.805L299 428l-1.333-2-1.334-2-1.305-2-.639-1-1.195-2-.583-1-.639-1-1.305-2-.667-1-1.333-2-.667-1-1.333-2-.639-1-.639-1-.583-1-1.195-2-1.278-2-.666-1-2.667-4-1.333-2-1.278-2-1.195-2-.583-1-1.278-2-.666-1-2.667-4-1.333-2-1.278-2-1.195-2-.583-1-1.278-2-.666-1-2.667-4-1.333-2-1.278-2-1.195-2-.583-1-1.278-2-1.305-2-.611-1-.917-2-.25-1-.167-1-.083-2v-6l1.5.028 1.556.222.944.222 2 .722 1 .417 2 .722 1 .334 1 .333 2 .667 7 2.333 4 1.333 2 .667 1 .306 2 .555 1 .306 1 .277 2 .75 1 .417 2 .722 1 .334 2 .666 6 2 33 11 9 3 3 1 1 .334.944.333 1 .333.556.223 1.5.444m-106 34l-1.5-.5-.556-.306-1-.388-.944-.417-2-.778-1-.417-2-.805-2-.778-2-.861-1-.5-2-.861-2-.778-2-.805-1-.417-2-.778-2-.861-1-.5-2-.861-2-.778-2-.805-1-.417-2-.778-1-.417-2-.805-2-.778-2-.861-1-.5-2-.861-2-.778-2-.805-1-.417-2-.778-1-.417-2-.805-2-.778-2-.861-1-.5-2-.861-2-.778-2-.805-1-.417-2-.778-2-.861-1-.5-2-.861-2-.778-1-.417-2-.805-1.944-.75-1-.472-.556-.195L157 375l.778-.806.528-.166.805-.389.917-.306L161 373l2-.667 1-.361 1-.361 1-.417 2-.805 2-.722 2-.667 5-1.667 2-.666 1-.334 2-.722 2-.805 1-.417 1-.361 1-.361 2-.667 3-1 2-.667 2-.722 2-.805 1-.417 2-.722 1-.334 2-.666 5-1.667 2-.667 2-.722 2-.805 1-.417 1-.361 1-.361 2-.667 2-.667 4-1.333 2-.667 2-.722 1-.417 1-.388 2-.778 2-.584 1-.111.972.084.917.333.778.583 1.083 1.695.361.972.25 1 .417 2 .139 1 .083 2v7l-.083 2-.306 2-.222 1-.306 2v2l.306 2 .194 1 .111 2-.305 2-.306 2-.055 1-.028 2v26m12-43l.694 1.5.389.556.611 1 .639.944 1.334 2 .666 1 1.278 2 1.195 2 .583 1 .639 1 .639 1 .666 1 1.334 2 .666 1 1.278 2 1.195 2 .583 1 .639 1 1.305 2 .667 1 2 3 1.333 2 1.278 2 1.195 2 .583 1 .639 1 .639 1 .666 1 1.334 2 3.333 5 1.333 2 1.278 2 .583 1 1.195 2 .639 1 .639 1 .666 1 1.334 2 1.222 1.944.472 1 .306.556.333 1.5-1.5-.25-1.556-.444-1.944-.695-1-.417-2-.805-2-.778-2-.861-1-.5-2-.861-2-.778-1-.417-2-.805-2-.778-2-.861-1-.5-2-.861-2-.778-2-.805-1-.417-2-.778-2-.861-1-.5-.944-.389-1.556-.583L252 415v-44l.028-.972.028-.917.194-.805.028-.528L253 367m-17 117l-1.5-.028-1.556-.194-.944-.195-2-.583-1-.333-2-.667-1-.306-1-.305-2-.528-1-.25-2-.611-2-.667-1-.333-2-.611-2-.528-1-.25-1-.305-1-.306-2-.667-1-.333-2-.611-2-.528-1-.25-1-.305-1-.306-2-.667-1-.333-2-.611-2-.528-1-.25-1-.305-1-.306-1-.333-2-.667-1-.306-1-.305-1-.25-2-.528-2-.611-1-.333-3-1-1-.334-2-.639-1-.305-2-.528-1-.25-1-.305-2-.612-1-.305-2-.528-1-.25-1-.305-1-.306-2-.667-1-.333-2-.611-2-.528-1-.25-1-.305-1-.306-2-.667-3-1-1-.333-1-.306-1-.305-1-.25-2-.528-1-.305-2-.612-1-.305-1-.25-2-.528-2-.611-1-.333-3-1-1-.334-2-.639-1-.305-1-.25-2-.528-2-.611-1-.333-2-.667-1-.306-1-.305-1-.25-2-.528-2-.611-1-.333-2-.667-1-.306-1-.305-2-.528-1-.25-2-.611-2-.667-1-.333-2-.611-2-.528-1-.25-1-.305-1-.306-2-.667-1-.333-2-.611-2-.528-1-.25-1-.305-1-.306-1-.333-2-.667-1-.306-1-.305-1-.25-2-.528-2-.611-1-.333-3-1-1-.334-2-.639-1-.305-1-.25-2-.528-2-.611-1-.333-2-.667-1-.306-1-.305-2-.528-1-.25-2-.611-2-.667-1-.333-2-.611-2-.528-1-.25-2-.611-1-.333-2-.667-1.8889-.639-.8055-.389-.5278-.166L27 421l.7778-.806.5278-.166.8055-.389.9167-.306L32 418.611l2-.805 1-.417 2-.722 1-.334 2-.666 3-1 1-.334 1-.361 1-.361 1-.417 2-.805 2-.722 2-.667 5-1.667 2-.666 1-.334 1-.361 1-.361 1-.417 2-.805 2-.722 2-.667 5-1.667 2-.666 1-.334 2-.722 1-.417 2-.805 2-.722 2-.667 5-1.667 2-.666 1-.334 2-.722 2-.805 1-.417 2-.722 1-.334 2-.666 7-2.334 2-.666 1-.334 1-.361 1-.361 2-.805 1-.417 2-.722 2-.667 3-1 2-.667 1-.361 1-.361 1-.417 2-.805 1-.361 2-.695 2-.666 2-.667 1-.306 1-.277 2-.223 1 .167 1 .361 1 .611 1.972 1.695.945.972 1.694 2 1.611 2 1.722 2 1.667 2 .778 1 1.694 2 1.834 2 .861 1 1.611 2 1.694 2 1.834 2 .861 1 1.611 2 .833 1 1.722 2 1.667 2 .778 1 1.694 2 1.834 2 .861 1 1.611 2 1.667 2 .888 1 1.667 2 1.611 2 .861 1 1.834 2 .861 1 1.611 2 1.667 2 .888 1 1.667 2 .778 1 1.667 2 .888 1 .834 1 .833 1 1.611 2 .861 1 1.834 2 .861 1 .833 1 1.611 2 .861 1 1.834 2 .861 1 1.611 2 1.667 2 .888 1 1.667 2 .778 1 1.667 2 .888 1 .834 1 1.611 2 1.694 2 1.889 2 .945 1 1.694 2 .778 1 1.667 2 1.638 1.944.528.556.778 1.5m234-65h-5l-2 .028-1 .055-2 .306-1 .222-2 .306-1 .055-2 .056-2 .194-2 .389-2 .306-1 .055-2 .028-2 .028-1 .055-2 .306-1 .222-2 .306-1 .055-2 .028-1 .028-1 .055-2 .306-1 .222-2 .306-1 .055-2 .028-2 .028-1 .055-2 .306-1 .222-2 .306-1 .055-2 .028-1 .028-1 .055-2 .306-1 .222-2 .306-1 .055-1 .028-2 .028-1 .055-2 .306-1 .222-2 .306-1 .055-2 .028-2 .028-1 .055-2 .306-1 .222-2 .306-1 .055-2 .056-2 .194-2 .389-2 .306-1 .055-2 .028-2 .028-1 .055-2 .306-1 .222-2 .306-1 .055-2 .028-1 .028-1 .055-2 .306-1 .222-2 .306-1 .055-2 .028-2 .028-1 .055-2 .306-1 .222-2 .306-1 .055-2 .028-1 .028-1 .055-2 .306-1 .222-2 .306-1 .055-2 .028-1 .028-1 .055-2 .306-1 .222-2 .306-1 .055-2 .028-2 .028-1 .055-2 .306-1 .222-1.944.306-1 .055L310 434l.528-1.5.972-1.556 1.556-1.944.888-1 1.667-2 .778-1 .805-1 1.612-2 .805-1 .778-1 1.611-2 1.611-2 .778-1 .805-1 1.612-2 .805-1 .778-1 .805-1 1.612-2 .805-1 .778-1 .805-1 1.612-2 .805-1 .778-1 1.667-2 .888-1 1.667-2 .778-1 .805-1 1.612-2 .805-1 1.583-2 1.612-2 .805-1 1.583-2 1.528-1.944.5-.556.778-1.5 1.5.028 1.556.194.944.195 2 .583 2 .667 1 .333 3 1 9 3 3 1 2 .667 2 .722 2 .778 1 .389 1 .277 2 .611 1 .389 2 .723 1 .277 2 .611 1 .389 2 .778 2 .722 2 .667 3 1 10 3.333L442 408l20 6.667 3 1 1 .333.972.333 1.695.723.611.527.361.25L470 419m-309-35l1.5.278.556.194 1.944.722 1 .417 2 .778 1 .417 2 .805 2 .778 2 .861 1 .5 2 .861 2 .778 2 .805 1 .417 2 .778 2 .861 1 .5 2 .861 2 .778 1 .417 2 .805 2 .778 2 .861 1 .5 2 .861 2 .778 2 .805 1 .417 2 .778 1 .417 2 .805 2 .778 2 .861 1 .5 2 .861 2 .778 2 .805 1 .417 2 .778 2 .861 1 .5 2 .861 2 .778 1 .417 2 .805 1.944.75 1 .472.556.195 1.5.972v62l-1.5-.778-1.472-1.333-1.639-1.889-.778-1-1.694-2-.917-1-.917-1-1.694-2-1.611-2-.861-1-1.834-2-.861-1-1.611-2-1.667-2-.888-1-1.667-2-.778-1-1.694-2-1.834-2-.861-1-1.611-2-1.667-2-.888-1-1.667-2-1.611-2-.861-1-1.834-2-1.694-2-.778-1-1.667-2-.888-1-1.667-2-1.611-2-.861-1-1.834-2-.861-1-1.611-2-1.667-2-.888-1-1.667-2-1.611-2-.861-1-1.834-2-1.694-2-.778-1-1.667-2-1.722-2-1.611-2-1.694-2-1.834-2-.861-1-1.611-2-1.667-2-.888-1-1.667-2-.778-1-.805-1-1.445-1.889-.389-.805-.333-.528L161 384m92 38l1.5.278 1.556.583.944.389 1 .5 2 .861 2 .778 2 .805 1 .417 2 .778 2 .861 1 .5 2 .861 2 .778 2 .805 1 .417 2 .778 2 .805 1 .417 2 .778 2 .861 1 .5 2 .861 2 .778 1 .417 1 .388 2 .806 2 .806 1 .361 1 .361 2 .389 1 .055 2 .028 2-.028 1-.055 2-.306 1-.222 2-.306 1-.055 1-.028 2-.028 1-.055 2-.306 1-.222 2-.306 1-.055 2-.028 2-.028 1-.055 2-.306 1-.222 2-.306 1-.055 2-.056 2-.194 2-.389 2-.306 1-.055 2-.028 2-.028 1-.055 2-.306 1-.222 2-.306 1-.055 2-.028 1-.028 1-.055 2-.306 1-.222 2-.306 1-.055 2-.028 2-.028 1-.055 2-.306 1-.222 2-.306 1-.055 1-.028 2-.028 1-.055 2-.306 1-.222 2-.306 1-.055 2-.028 2-.028 1-.055 2-.306 1-.222 2-.306 1-.055 2-.028 1-.028 1-.055 2-.306 1-.222 2-.306 1-.055 2-.028 1-.028 1-.055 2-.306 1-.222 2-.306 1-.055 2-.028 1-.028 1-.055 2-.306 1-.222 2-.306 1-.055 2-.028 2-.028 1-.055 2-.306 1-.222 2-.306.944-.055 1-.028H440l-.778.806-.528.166-.805.389L436 430l-1 .306-1 .305-1 .25-2 .528-1 .305-2 .612-1 .305-1 .25-2 .528-1 .305-1 .306-1 .333-2 .667-1 .306-1 .305-2 .528-1 .25-2 .611-1 .333-2 .667-2 .611-1 .25-2 .528-1 .305-1 .306-1 .333-2 .667-2 .611-1 .25-2 .528-1 .305-1 .306-1 .333-2 .667-2 .611-1 .25-2 .528-1 .305-1 .306-2 .667-1 .333-1 .306-1 .305-1 .25-2 .528-2 .611-1 .333-2 .667-1 .306-1 .305-2 .528-1 .25-1 .305-2 .612-1 .305-2 .528-1 .25-1 .305-1 .306-2 .667-1 .333-1 .306-1 .305-2 .528-1 .25-2 .611-2 .667-1 .333-1 .306-1 .305-2 .528-1 .25-2 .611-1 .333-2 .667-2 .611-1 .25-2 .528-1 .305-1 .306-2 .667-1 .333-2 .611-2 .528-1 .25-1 .305-1 .306-1 .333-2 .667-1 .306-1 .305-2 .528-1 .25-2 .611-2 .667-1 .333-2 .611-1 .25-2 .528-1 .305-1 .306-1 .333-2 .667-2 .611-1 .25-2 .528-1 .305-1 .306-1 .333-2 .667-1 .306-1 .305-1 .25-2 .528-1 .305-2 .612-1 .305-1 .25-2 .528-1 .305-1 .306-1 .333-2 .667-1 .306-1 .305-1 .25-2 .528-2 .611-2 .667-.944.333-1 .333-.556.223-1.5.444-.694-1.5.027-.556-.055-1 .333-1.944.306-2 .055-1 .028-2v-49l.028-.972.028-.917.194-.805.028-.528L253 422z" style="fill:currentColor" fill="currentColor" />
</svg>
